Coordinates
version=1
nRows=16
nColumns=22
inDegrees=yes

Units are S.I. units (second, meters, Newtons, ...)
If the header above contains a line with 'inDegrees', this indicates whether rotational values are in degrees (yes) or radians (no).

endheader
time	pelvis_tilt	pelvis_list	pelvis_rotation	pelvis_tx	pelvis_ty	pelvis_tz	hip_flexion_r	hip_adduction_r	hip_rotation_r	knee_angle_r	ankle_angle_r	subtalar_angle_r	hip_flexion_l	hip_adduction_l	hip_rotation_l	knee_angle_l	ankle_angle_l	subtalar_angle_l	lumbar_extension	lumbar_bending	lumbar_rotation
      0.01000000	      5.76318184	     -3.63212891	     -0.04911993	     -0.69266847	      0.95421880	      0.54714714	     -4.80074007	      4.18507690	    -10.26437161	    -10.23198617	      9.47375859	      0.87765123	     -3.08099273	     -3.39466360	     -7.27013354	    -15.64596831	     20.84681878	     -9.67136199	    -12.28406046	      3.60138480	    -10.34252159
      0.02000000	      5.78119112	     -3.63787440	     -0.03558316	     -0.69269253	      0.95424617	      0.54713788	     -4.81657007	      4.19182371	    -10.28454490	    -10.23643825	      9.47003506	      0.87945348	     -3.09568633	     -3.40199278	     -7.25028875	    -15.64857505	     20.82397460	     -9.67493834	    -12.30745065	      3.61067080	    -10.35733706
      0.03000000	      5.78232069	     -3.63733358	     -0.03501867	     -0.69269695	      0.95424606	      0.54714641	     -4.81669905	      4.19155537	    -10.28459067	    -10.23667739	      9.46994857	      0.87950211	     -3.09604928	     -3.40247432	     -7.25004080	    -15.64848345	     20.82414094	     -9.67493438	    -12.30668811	      3.61018738	    -10.35742583
      0.04000000	      5.78532458	     -3.63573075	     -0.02908930	     -0.69268147	      0.95424641	      0.54714450	     -4.81880291	      4.19062064	    -10.28277189	    -10.24125597	      9.46959154	      0.87963430	     -3.09910719	     -3.40212181	     -7.24877314	    -15.64924958	     20.82485151	     -9.67485628	    -12.30302138	      3.60837348	    -10.35793474
      0.05000000	      5.78883820	     -3.63281487	     -0.02173715	     -0.69266816	      0.95424676	      0.54713190	     -4.82083104	      4.18779850	    -10.27850032	    -10.24735428	      9.46956292	      0.87970980	     -3.10217098	     -3.39972397	     -7.24618676	    -15.64953419	     20.82594340	     -9.67463188	    -12.30119398	      3.60765215	    -10.35986738
      0.06000000	      5.79972194	     -3.61865511	     -0.01543842	     -0.69268300	      0.95425901	      0.54712038	     -4.82479642	      4.17299155	    -10.25481516	    -10.26284301	      9.47478799	      0.87983650	     -3.11448534	     -3.38186042	     -7.22043537	    -15.64374082	     20.83145696	     -9.67330513	    -12.31597883	      3.59340765	    -10.38224983
      0.07000000	      5.80210672	     -3.61623977	     -0.00813778	     -0.69265727	      0.95425777	      0.54710624	     -4.82860553	      4.17045351	    -10.25182007	    -10.26499461	      9.47576033	      0.87974412	     -3.11793140	     -3.37997468	     -7.21925981	    -15.64243645	     20.83102688	     -9.67362238	    -12.31100489	      3.59391195	    -10.38078067
      0.08000000	      5.81127719	     -3.59911111	     -0.00153873	     -0.69263943	      0.95427436	      0.54710554	     -4.84575504	      4.15536263	    -10.21991510	    -10.25475540	      9.48897118	      0.87820284	     -3.14113111	     -3.35821566	     -7.18675577	    -15.61487062	     20.82738699	     -9.67584404	    -12.31770321	      3.57259400	    -10.39447411
      0.09000000	      5.81336446	     -3.59803662	      0.00299053	     -0.69261849	      0.95427600	      0.54710502	     -4.84909065	      4.15433401	    -10.21905898	    -10.25651193	      9.48904960	      0.87794974	     -3.14450644	     -3.35807875	     -7.18654261	    -15.61417063	     20.82611477	     -9.67648621	    -12.31394332	      3.57358127	    -10.39242355
      0.10000000	      5.81502633	     -3.59724549	      0.00775312	     -0.69260580	      0.95427966	      0.54712653	     -4.85233835	      4.15591215	    -10.21883566	    -10.25629924	      9.48924334	      0.87751099	     -3.14824327	     -3.35979472	     -7.18540208	    -15.61030823	     20.82437665	     -9.67729990	    -12.31226508	      3.56967557	    -10.39042498
      0.11000000	      5.81506886	     -3.59655675	      0.00784645	     -0.69260643	      0.95428375	      0.54714679	     -4.85249664	      4.15586239	    -10.21904917	    -10.25603481	      9.48925335	      0.87746772	     -3.14851401	     -3.36059759	     -7.18521037	    -15.60990496	     20.82423349	     -9.67735485	    -12.31226159	      3.56955321	    -10.39023594
      0.12000000	      5.81494946	     -3.59812713	      0.00896913	     -0.69260883	      0.95428943	      0.54720149	     -4.85385739	      4.16156015	    -10.22488954	    -10.25260700	      9.48917971	      0.87691151	     -3.15081015	     -3.36644548	     -7.18399269	    -15.60434667	     20.82235431	     -9.67785878	    -12.31234686	      3.56129134	    -10.38639673
      0.13000000	      5.81588594	     -3.60492200	      0.01030120	     -0.69259095	      0.95429951	      0.54723315	     -4.86125647	      4.16978669	    -10.25724555	    -10.24169686	      9.48552029	      0.87356316	     -3.16077844	     -3.37533438	     -7.18004555	    -15.58806439	     20.81407839	     -9.67865381	    -12.30937385	      3.56623376	    -10.36369774
      0.14000000	      5.81529323	     -3.60646523	      0.00836251	     -0.69261612	      0.95430486	      0.54728078	     -4.85894680	      4.17307535	    -10.26170301	    -10.24048273	      9.48448139	      0.87309684	     -3.16013765	     -3.38043620	     -7.17892958	    -15.58547069	     20.81344324	     -9.67857091	    -12.31450320	      3.56145861	    -10.36295135
      0.15000000	      5.81657847	     -3.61698849	      0.01041803	     -0.69262687	      0.95431441	      0.54732002	     -4.85645254	      4.18499097	    -10.29651530	    -10.24566104	      9.47355413	      0.86954932	     -3.16363291	     -3.39493428	     -7.17339117	    -15.57884714	     20.80901180	     -9.67662487	    -12.31810719	      3.56849227	    -10.33830000
      0.16000000	      5.81512519	     -3.61817445	      0.00873341	     -0.69265422	      0.95431846	      0.54735517	     -4.85332384	      4.18700093	    -10.30055448	    -10.24419275	      9.47222141	      0.86922987	     -3.16134604	     -3.39886076	     -7.17272062	    -15.57643887	     20.80918603	     -9.67616381	    -12.32347333	      3.56574628	    -10.33761741
